<svg xmlns="http://www.w3.org/2000/svg" version="1.1" xmlns:xlink="http://www.w3.org/1999/xlink" xmlns:svgjs="http://svgjs.dev/svgjs" width="1000" height="1000" viewBox="0 0 1000 1000"><rect width="1000" height="1000" fill="#000000"></rect><g transform="matrix(0.7,0,0,0.7,149.57575757575756,230.3784597820968)"><svg viewBox="0 0 396 305" data-background-color="#000000" preserveAspectRatio="xMidYMid meet" height="770" width="1000" xmlns="http://www.w3.org/2000/svg" xmlns:xlink="http://www.w3.org/1999/xlink"><g id="tight-bounds" transform="matrix(1,0,0,1,0.2400000000000091,0.0687750769210993)"><svg viewBox="0 0 395.52 235.3311495603254" height="235.3311495603254" width="395.52"><g><svg viewBox="0 0 395.52 235.3311495603254" height="235.3311495603254" width="395.52"><g><svg viewBox="0 0 395.52 235.3311495603254" height="235.3311495603254" width="395.52"><g id="textblocktransform"><svg viewBox="0 0 395.52 235.3311495603254" height="235.3311495603254" width="395.52" id="textblock"><g><rect width="395.52" height="206.72380547942507" fill="none" stroke-width="8.962371322224001" stroke="#ffffff" data-fill-palette-color="none" data-stroke-palette-color="tertiary"></rect><rect width="395.52" height="98.13864436673269" y="206.72380547942507" fill="#ffffff" data-fill-palette-color="tertiary"></rect></g><g><svg viewBox="0 0 395.52 205.72380547942507" height="205.72380547942507" width="395.52"><g transform="matrix(1,0,0,1,23.461705032,23.461705032)"><svg width="348.596589936" viewBox="1.25 -36.040000915527344 80.16999816894531 36.53000259399414" height="158.80039541542507" data-palette-color="#ff0000"><path d="M25.88-35.55L25.88-29.57 17.09-29.57 17.09 0 9.89 0 9.89-29.57 1.25-29.57 1.25-35.55 25.88-35.55ZM53.49-18.7L53.49-4.03Q51.41-1.78 48.4-0.65 45.38 0.49 41.79 0.49L41.79 0.49Q35.67 0.49 32.27-3.31 28.88-7.1 28.78-14.36L28.78-14.36 28.78-20.75Q28.78-28.1 31.99-32.07 35.2-36.04 41.35-36.04L41.35-36.04Q47.14-36.04 50.08-33.18 53.02-30.32 53.49-24.22L53.49-24.22 46.51-24.22Q46.21-27.61 45.09-28.85 43.97-30.08 41.57-30.08L41.57-30.08Q38.67-30.08 37.35-27.95 36.03-25.83 35.98-21.19L35.98-21.19 35.98-14.75Q35.98-9.89 37.44-7.68 38.89-5.47 42.21-5.47L42.21-5.47Q44.33-5.47 45.65-6.32L45.65-6.32 46.29-6.76 46.29-13.28 41.26-13.28 41.26-18.7 53.49-18.7ZM70.33 0L58.56 0 58.56-35.55 69.55-35.55Q75.12-35.55 78.01-33.07 80.9-30.59 80.9-25.81L80.9-25.81Q80.9-23.1 79.71-21.14 78.51-19.19 76.44-18.29L76.44-18.29Q78.83-17.6 80.12-15.54 81.42-13.48 81.42-10.45L81.42-10.45Q81.42-5.27 78.57-2.64 75.73 0 70.33 0L70.33 0ZM70.8-15.45L65.74-15.45 65.74-5.96 70.33-5.96Q72.26-5.96 73.26-7.15 74.26-8.35 74.26-10.55L74.26-10.55Q74.26-15.33 70.8-15.45L70.8-15.45ZM65.74-29.57L65.74-20.68 69.48-20.68Q73.7-20.68 73.7-25.05L73.7-25.05Q73.7-27.47 72.72-28.52 71.75-29.57 69.55-29.57L69.55-29.57 65.74-29.57Z" opacity="1" transform="matrix(1,0,0,1,0,0)" fill="#ffffff" class="wordmark-text-0" data-fill-palette-color="primary" id="text-0"></path></svg></g></svg></g><g transform="matrix(1,0,0,1,75.54432,205.72380547942507)"><svg viewBox="0 0 244.43135999999998 29.60734408090034" height="29.60734408090034" width="244.43135999999998"><g transform="matrix(1,0,0,1,20,3.2)"><svg width="204.43135999999998" viewBox="1.0499999523162842 -33.650001525878906 306.5299987792969 34.80000305175781" height="23.207344080900338" data-palette-color="#ffffff"><path d="M30.25-33.35L30.25-25.8 28.75-25.8 27.05-31.55 18.2-31.65 18.2-1.65 22.85-1.2 22.85 0 8.4 0 8.4-1.2 13.05-1.65 13.05-31.65 4.2-31.55 2.5-25.8 1.05-25.8 1.05-33.35 15.65-33.45 30.25-33.35ZM70-1.2L70 0 56.15 0 56.15-1.2 60.5-1.65 60.5-16.5 42.75-16.5 42.75-1.65 47.1-1.2 47.1 0 33.25 0 33.25-1.2 37.6-1.65 37.6-31.75 33.25-32.2 33.25-33.4 47.1-33.4 47.1-32.2 42.75-31.75 42.75-18.3 60.5-18.3 60.5-31.75 56.15-32.2 56.15-33.4 70-33.4 70-32.2 65.65-31.75 65.65-1.65 70-1.2ZM99.45 0L73.9 0 73.9-1.2 78.25-1.65 78.25-31.75 73.9-32.3 73.9-33.4 97.85-33.4 97.9-26.3 96.6-26.3 94.9-31.6 83.4-31.75 83.4-18.3 93.5-18.3 95.05-22 96.05-22 96.05-12.7 95-12.7 93.5-16.5 83.4-16.5 83.4-1.6 96.4-1.75 98.75-7.45 100.05-7.45 99.45 0ZM136.34-15.65L125.94-15.65 125.94-1.65 130.29-1.2 130.29 0 116.44 0 116.44-1.2 120.79-1.65 120.79-31.7 116.44-32.3 116.44-33.4 140.69-33.4 140.74-26.3 139.44-26.3 137.74-31.6 125.94-31.75 125.94-17.45 136.34-17.45 137.89-21.15 138.89-21.15 138.89-11.85 137.84-11.85 136.34-15.65ZM153.09-31.75L153.09-12Q153.09-6.4 155.26-3.78 157.44-1.15 162.14-1.15 166.84-1.15 169.11-3.65 171.39-6.15 171.39-12.15L171.39-12.15 171.39-31.45 167.69-31.95 167.69-33.4 177.59-33.4 177.59-31.85 173.54-31.45 173.54-11.7Q173.54-7.95 172.51-5.68 171.49-3.4 170.24-2.2 168.99-1 166.79-0.2 164.59 0.6 161.64 0.6L161.64 0.6Q154.74 0.6 151.36-2.18 147.99-4.95 147.99-11L147.99-11 147.99-31.75 144.04-32.1 144.04-33.4 157.59-33.4 157.59-32.1 153.09-31.75ZM209.24-33.35L209.24-25.8 207.74-25.8 206.04-31.55 197.19-31.65 197.19-1.65 201.84-1.2 201.84 0 187.39 0 187.39-1.2 192.04-1.65 192.04-31.65 183.19-31.55 181.49-25.8 180.04-25.8 180.04-33.35 194.64-33.45 209.24-33.35ZM220.68-31.75L220.68-12Q220.68-6.4 222.86-3.78 225.03-1.15 229.73-1.15 234.43-1.15 236.71-3.65 238.98-6.15 238.98-12.15L238.98-12.15 238.98-31.45 235.28-31.95 235.28-33.4 245.18-33.4 245.18-31.85 241.13-31.45 241.13-11.7Q241.13-7.95 240.11-5.68 239.08-3.4 237.83-2.2 236.58-1 234.38-0.2 232.18 0.6 229.23 0.6L229.23 0.6Q222.33 0.6 218.96-2.18 215.58-4.95 215.58-11L215.58-11 215.58-31.75 211.63-32.1 211.63-33.4 225.18-33.4 225.18-32.1 220.68-31.75ZM257.88-31.95L257.88-17.6 260.38-17.6Q269.33-17.6 269.33-25.1L269.33-25.1Q269.33-28.8 267.58-30.48 265.83-32.15 261.98-32.15L261.98-32.15Q260.48-32.15 257.88-31.95L257.88-31.95ZM255.23-33.5L257.78-33.5 263.48-33.65Q274.83-33.65 274.83-25.1L274.83-25.1Q274.83-21.4 272.31-19.03 269.78-16.65 265.78-16.65L265.78-16.65Q265.43-16.65 264.53-16.75L264.53-16.75 264.53-16.65Q269.88-15.9 271.91-13.18 273.93-10.45 273.93-4.85L273.93-4.85Q273.93-1.35 275.23-0.8L275.23-0.8Q275.83-0.4 276.91-0.4 277.98-0.4 279.68-1.05L279.68-1.05 279.68 0.2Q277.03 1.15 274.83 1.15L274.83 1.15Q269.93 1.15 268.78-3.05L268.78-3.05Q268.48-4.15 268.46-6.15 268.43-8.15 268.28-9.7 268.13-11.25 267.58-12.8L267.58-12.8Q266.33-16.15 260.68-16.15L260.68-16.15 257.88-16.15 257.88-1.45 261.73-1.1 261.73 0 248.98 0 248.98-1.05 252.73-1.45 252.73-31.85 248.38-32.35 248.38-33.65Q251.58-33.5 255.23-33.5L255.23-33.5ZM306.98 0L281.43 0 281.43-1.2 285.78-1.65 285.78-31.75 281.43-32.3 281.43-33.4 305.38-33.4 305.43-26.3 304.13-26.3 302.43-31.6 290.93-31.75 290.93-18.3 301.03-18.3 302.58-22 303.58-22 303.58-12.7 302.53-12.7 301.03-16.5 290.93-16.5 290.93-1.6 303.93-1.75 306.28-7.45 307.58-7.45 306.98 0Z" opacity="1" transform="matrix(1,0,0,1,0,0)" fill="#000000" class="slogan-text-1" data-fill-palette-color="quaternary" id="text-1"></path></svg></g></svg></g></svg></g></svg></g></svg></g><defs></defs></svg><rect width="395.52" height="235.3311495603254" fill="none" stroke="none" visibility="hidden"></rect></g></svg></g></svg>